<svg xmlns="http://www.w3.org/2000/svg" width="200" height="200" viewBox="0 0 200 200">
  <!-- Фон -->
  <circle cx="100" cy="100" r="95" fill="#ffffff" />
  <circle cx="100" cy="100" r="90" fill="url(#grad1)" />
  
  <!-- Градиент -->
  <defs>
    <linearGradient id="grad1" x1="0%" y1="0%" x2="100%" y2="100%">
      <stop offset="0%" style="stop-color:#6CB4EE;stop-opacity:1" />
      <stop offset="100%" style="stop-color:#4A90E2;stop-opacity:1" />
    </linearGradient>
  </defs>
  
  <!-- Календарь -->
  <rect x="50" y="60" width="100" height="90" rx="5" ry="5" fill="white" stroke="#6CB4EE" stroke-width="4"/>
  
  <!-- Верхняя часть календаря -->
  <rect x="50" y="60" width="100" height="20" rx="5" ry="5" fill="#6CB4EE"/>
  
  <!-- Кольца календаря -->
  <circle cx="70" cy="60" r="5" fill="#4A90E2"/>
  <circle cx="130" cy="60" r="5" fill="#4A90E2"/>
  
  <!-- Линии календаря -->
  <line x1="75" y1="95" x2="125" y2="95" stroke="#6CB4EE" stroke-width="2"/>
  <line x1="75" y1="115" x2="125" y2="115" stroke="#6CB4EE" stroke-width="2"/>
  <line x1="75" y1="135" x2="125" y2="135" stroke="#6CB4EE" stroke-width="2"/>
  
  <!-- Школьный колокольчик -->
  <path d="M100,30 C90,30 85,40 85,45 L85,55 L115,55 L115,45 C115,40 110,30 100,30 Z" fill="#6CB4EE"/>
  <circle cx="100" cy="30" r="5" fill="#4A90E2"/>
  <rect x="97" y="55" width="6" height="10" fill="#4A90E2"/>
  
  <!-- Текст "2024" -->
  <text x="100" y="130" font-family="Arial" font-size="24" font-weight="bold" text-anchor="middle" fill="#4A90E2">2025</text>
</svg>